<svg xmlns="http://www.w3.org/2000/svg" viewBox="0 0 180 90" width="180" height="90" shape-rendering="crispEdges">
<rect width="100%" height="100%" fill="white"/>
<rect x="140" y="6" width="4" height="1" fill="black"/>
<rect x="132" y="7" width="15" height="1" fill="black"/>
<rect x="129" y="8" width="25" height="1" fill="black"/>
<rect x="101" y="9" width="4" height="1" fill="black"/>
<rect x="123" y="9" width="47" height="1" fill="black"/>
<rect x="98" y="10" width="11" height="1" fill="black"/>
<rect x="119" y="10" width="61" height="1" fill="black"/>
<rect x="97" y="11" width="83" height="1" fill="black"/>
<rect x="95" y="12" width="85" height="1" fill="black"/>
<rect x="94" y="13" width="86" height="1" fill="black"/>
<rect x="93" y="14" width="6" height="1" fill="black"/>
<rect x="101" y="14" width="76" height="1" fill="black"/>
<rect x="93" y="15" width="6" height="1" fill="black"/>
<rect x="101" y="15" width="61" height="1" fill="black"/>
<rect x="165" y="15" width="3" height="1" fill="black"/>
<rect x="169" y="15" width="3" height="1" fill="black"/>
<rect x="93" y="16" width="5" height="1" fill="black"/>
<rect x="101" y="16" width="59" height="1" fill="black"/>
<rect x="168" y="16" width="4" height="1" fill="black"/>
<rect x="93" y="17" width="67" height="1" fill="black"/>
<rect x="168" y="17" width="3" height="1" fill="black"/>
<rect x="92" y="18" width="68" height="1" fill="black"/>
<rect x="169" y="18" width="1" height="1" fill="black"/>
<rect x="90" y="19" width="71" height="1" fill="black"/>
<rect x="89" y="20" width="71" height="1" fill="black"/>
<rect x="89" y="21" width="70" height="1" fill="black"/>
<rect x="88" y="22" width="70" height="1" fill="black"/>
<rect x="86" y="23" width="19" height="1" fill="black"/>
<rect x="106" y="23" width="9" height="1" fill="black"/>
<rect x="116" y="23" width="41" height="1" fill="black"/>
<rect x="85" y="24" width="6" height="1" fill="black"/>
<rect x="97" y="24" width="18" height="1" fill="black"/>
<rect x="116" y="24" width="40" height="1" fill="black"/>
<rect x="86" y="25" width="4" height="1" fill="black"/>
<rect x="94" y="25" width="1" height="1" fill="black"/>
<rect x="97" y="25" width="18" height="1" fill="black"/>
<rect x="117" y="25" width="38" height="1" fill="black"/>
<rect x="159" y="25" width="1" height="1" fill="black"/>
<rect x="86" y="26" width="5" height="1" fill="black"/>
<rect x="92" y="26" width="3" height="1" fill="black"/>
<rect x="103" y="26" width="47" height="1" fill="black"/>
<rect x="153" y="26" width="2" height="1" fill="black"/>
<rect x="157" y="26" width="3" height="1" fill="black"/>
<rect x="86" y="27" width="10" height="1" fill="black"/>
<rect x="105" y="27" width="46" height="1" fill="black"/>
<rect x="154" y="27" width="6" height="1" fill="black"/>
<rect x="86" y="28" width="11" height="1" fill="black"/>
<rect x="101" y="28" width="2" height="1" fill="black"/>
<rect x="106" y="28" width="45" height="1" fill="black"/>
<rect x="156" y="28" width="2" height="1" fill="black"/>
<rect x="85" y="29" width="66" height="1" fill="black"/>
<rect x="84" y="30" width="67" height="1" fill="black"/>
<rect x="83" y="31" width="68" height="1" fill="black"/>
<rect x="82" y="32" width="39" height="1" fill="black"/>
<rect x="122" y="32" width="28" height="1" fill="black"/>
<rect x="82" y="33" width="37" height="1" fill="black"/>
<rect x="124" y="33" width="25" height="1" fill="black"/>
<rect x="81" y="34" width="39" height="1" fill="black"/>
<rect x="125" y="34" width="20" height="1" fill="black"/>
<rect x="81" y="35" width="38" height="1" fill="black"/>
<rect x="126" y="35" width="7" height="1" fill="black"/>
<rect x="136" y="35" width="8" height="1" fill="black"/>
<rect x="81" y="36" width="37" height="1" fill="black"/>
<rect x="126" y="36" width="5" height="1" fill="black"/>
<rect x="137" y="36" width="7" height="1" fill="black"/>
<rect x="81" y="37" width="35" height="1" fill="black"/>
<rect x="127" y="37" width="4" height="1" fill="black"/>
<rect x="138" y="37" width="7" height="1" fill="black"/>
<rect x="81" y="38" width="34" height="1" fill="black"/>
<rect x="127" y="38" width="3" height="1" fill="black"/>
<rect x="139" y="38" width="6" height="1" fill="black"/>
<rect x="82" y="39" width="33" height="1" fill="black"/>
<rect x="127" y="39" width="3" height="1" fill="black"/>
<rect x="139" y="39" width="5" height="1" fill="black"/>
<rect x="83" y="40" width="33" height="1" fill="black"/>
<rect x="84" y="41" width="31" height="1" fill="black"/>
<rect x="85" y="42" width="5" height="1" fill="black"/>
<rect x="92" y="42" width="22" height="1" fill="black"/>
<rect x="94" y="43" width="19" height="1" fill="black"/>
<rect x="94" y="44" width="18" height="1" fill="black"/>
<rect x="94" y="45" width="17" height="1" fill="black"/>
<rect x="95" y="46" width="16" height="1" fill="black"/>
<rect x="95" y="47" width="15" height="1" fill="black"/>
<rect x="96" y="48" width="14" height="1" fill="black"/>
<rect x="96" y="49" width="14" height="1" fill="black"/>
<rect x="96" y="50" width="14" height="1" fill="black"/>
<rect x="96" y="51" width="14" height="1" fill="black"/>
<rect x="96" y="52" width="14" height="1" fill="black"/>
<rect x="113" y="52" width="2" height="1" fill="black"/>
<rect x="96" y="53" width="13" height="1" fill="black"/>
<rect x="112" y="53" width="3" height="1" fill="black"/>
<rect x="96" y="54" width="13" height="1" fill="black"/>
<rect x="112" y="54" width="3" height="1" fill="black"/>
<rect x="96" y="55" width="12" height="1" fill="black"/>
<rect x="112" y="55" width="3" height="1" fill="black"/>
<rect x="97" y="56" width="11" height="1" fill="black"/>
<rect x="112" y="56" width="2" height="1" fill="black"/>
<rect x="97" y="57" width="10" height="1" fill="black"/>
<rect x="97" y="58" width="10" height="1" fill="black"/>
<rect x="98" y="59" width="8" height="1" fill="black"/>
<rect x="98" y="60" width="7" height="1" fill="black"/>
<rect x="99" y="61" width="5" height="1" fill="black"/>
<rect x="56" y="78" width="2" height="1" fill="black"/>
<rect x="114" y="78" width="6" height="1" fill="black"/>
<rect x="133" y="78" width="3" height="1" fill="black"/>
<rect x="139" y="78" width="25" height="1" fill="black"/>
<rect x="55" y="79" width="4" height="1" fill="black"/>
<rect x="106" y="79" width="18" height="1" fill="black"/>
<rect x="128" y="79" width="41" height="1" fill="black"/>
<rect x="55" y="80" width="4" height="1" fill="black"/>
<rect x="90" y="80" width="84" height="1" fill="black"/>
<rect x="39" y="81" width="3" height="1" fill="black"/>
<rect x="44" y="81" width="3" height="1" fill="black"/>
<rect x="53" y="81" width="6" height="1" fill="black"/>
<rect x="82" y="81" width="92" height="1" fill="black"/>
<rect x="19" y="82" width="33" height="1" fill="black"/>
<rect x="55" y="82" width="4" height="1" fill="black"/>
<rect x="80" y="82" width="94" height="1" fill="black"/>
<rect x="14" y="83" width="38" height="1" fill="black"/>
<rect x="74" y="83" width="99" height="1" fill="black"/>
<rect x="14" y="84" width="38" height="1" fill="black"/>
<rect x="72" y="84" width="100" height="1" fill="black"/>
<rect x="13" y="85" width="43" height="1" fill="black"/>
<rect x="63" y="85" width="6" height="1" fill="black"/>
<rect x="71" y="85" width="101" height="1" fill="black"/>
<rect x="15" y="86" width="159" height="1" fill="black"/>
<rect x="0" y="87" width="10" height="1" fill="black"/>
<rect x="12" y="87" width="168" height="1" fill="black"/>
<rect x="0" y="88" width="180" height="1" fill="black"/>
<rect x="0" y="89" width="180" height="1" fill="black"/>
</svg>
